<svg xmlns="http://www.w3.org/2000/svg" viewBox="0 0 30.786124 9.5249996"><circle cx="18" cy="18" r="14" fill="#E1E8ED" stroke="#99AAB5" stroke-width="8" paint-order="stroke" transform="translate(1.73613) scale(.26458)"/><g fill="#66757F" stroke="#E1E7ED" opacity=".75"><path stroke-linejoin="round" stroke-width=".1" d="m8.82702965 8.7954065-.41666099-.72167801m2.12116783-.98282886-.72167801-.416661m1.3455708-1.91173862h-.83332198m.2094292-2.32839966-.72167801.41666099M8.82702963.72959351l-.416661.72167801M6.49863002.10570072V.9390227M4.17023035.7295935l.41666099.72167801m-2.12116783.98282886.72167801.416661m-1.3455708 1.91173862h.83332198m-.2094292 2.32839966.72167801-.41666099m.98282886 2.12116783.416661-.72167801m1.91173862 1.3455708V8.5859773"/><path fill="#E1E7ED" stroke="none" d="M7.05165798 8.99251307a.10784167.10784167 0 0 1-.09597838.11852342.10784167.10784167 0 0 1-.11852342-.09597837.10784167.10784167 0 0 1 .09597837-.11852343.10784167.10784167 0 0 1 .11852343.09597838Zm.4391272-.08097963a.10784167.10784167 0 0 1-.0830635.12790662.10784167.10784167 0 0 1-.12790662-.0830635.10784167.10784167 0 0 1 .08306353-.12790662.10784167.10784167 0 0 1 .12790658.0830635zm.428257-.12643727a.10784167.10784167 0 0 1-.06923862.13588841.10784167.10784167 0 0 1-.13588846-.0692386.10784167.10784167 0 0 1 .06923861-.13588842.10784167.10784167 0 0 1 .13588846.06923861zm.41269462-.1705097a.10784167.10784167 0 0 1-.05465512.1423814.10784167.10784167 0 0 1-.14238143-.05465512.10784167.10784167 0 0 1 .05465511-.14238139.10784167.10784167 0 0 1 .14238144.05465511zm.76083602-.46530169a.10784167.10784167 0 0 1-.023858.15063349.10784167.10784167 0 0 1-.1506335-.023858.10784167.10784167 0 0 1 .023858-.1506335.10784167.10784167 0 0 1 .1506335.02385801Zm.3398055-.289694a.10784167.10784167 0 0 1-.00798178.15230213.10784167.10784167 0 0 1-.15230214-.00798182.10784167.10784167 0 0 1 .00798177-.15230214.10784167.10784167 0 0 1 .15230215.00798182zm.30766275-.32362642a.10784167.10784167 0 0 1 .00798183.15230213.10784167.10784167 0 0 1-.15230214.00798184.10784167.10784167 0 0 1-.00798183-.15230214.10784167.10784167 0 0 1 .15230214-.00798183zm.2721492-.35401304a.10784167.10784167 0 0 1 .02385798.1506335.10784167.10784167 0 0 1-.15063349.02385798.10784167.10784167 0 0 1-.02385798-.15063349.10784167.10784167 0 0 1 .15063348-.02385799zm.42625249-.78338107a.10784167.10784167 0 0 1 .05465511.14238143.10784167.10784167 0 0 1-.14238143.05465511.10784167.10784167 0 0 1-.05465511-.14238142.10784167.10784167 0 0 1 .14238143-.05465512Zm.14943319-.42078513a.10784167.10784167 0 0 1 .06923864.13588845.10784167.10784167 0 0 1-.13588845.0692386.10784167.10784167 0 0 1-.0692386-.13588846.10784167.10784167 0 0 1 .1358884-.06923859zm.10463057-.43410007a.10784167.10784167 0 0 1 .08306353.12790663.10784167.10784167 0 0 1-.12790658.08306352.10784167.10784167 0 0 1-.08306353-.12790662.10784167.10784167 0 0 1 .12790658-.08306353zm.0586816-.44265889a.10784167.10784167 0 0 1 .09597837.11852345.10784167.10784167 0 0 1-.1185234.09597838.10784167.10784167 0 0 1-.09597838-.11852346.10784167.10784167 0 0 1 .1185234-.09597837zm-.02254505-.89155414a.10784167.10784167 0 0 1 .11852342.09597838.10784167.10784167 0 0 1-.09597837.11852342.10784167.10784167 0 0 1-.11852343-.09597837.10784167.10784167 0 0 1 .09597838-.11852343Zm-.08097963-.4391272a.10784167.10784167 0 0 1 .12790662.0830635.10784167.10784167 0 0 1-.0830635.12790662.10784167.10784167 0 0 1-.12790662-.08306353.10784167.10784167 0 0 1 .0830635-.12790658zm-.12643727-.428257a.10784167.10784167 0 0 1 .13588841.06923862.10784167.10784167 0 0 1-.0692386.13588846.10784167.10784167 0 0 1-.13588842-.06923861.10784167.10784167 0 0 1 .06923861-.13588846zm-.1705097-.41269462a.10784167.10784167 0 0 1 .1423814.05465512.10784167.10784167 0 0 1-.05465512.14238143.10784167.10784167 0 0 1-.14238139-.05465511.10784167.10784167 0 0 1 .05465511-.14238144zm-.46530169-.76083602a.10784167.10784167 0 0 1 .15063349.023858.10784167.10784167 0 0 1-.023858.1506335.10784167.10784167 0 0 1-.1506335-.023858.10784167.10784167 0 0 1 .02385801-.1506335Zm-.289694-.3398055a.10784167.10784167 0 0 1 .15230213.00798178.10784167.10784167 0 0 1-.00798182.15230214.10784167.10784167 0 0 1-.15230214-.00798177.10784167.10784167 0 0 1 .00798182-.15230215zm-.32362642-.30766275a.10784167.10784167 0 0 1 .15230213-.00798183.10784167.10784167 0 0 1 .00798184.15230214.10784167.10784167 0 0 1-.15230214.00798183.10784167.10784167 0 0 1-.00798183-.15230214zm-.35401304-.2721492a.10784167.10784167 0 0 1 .1506335-.02385798.10784167.10784167 0 0 1 .02385798.15063349.10784167.10784167 0 0 1-.15063349.02385798.10784167.10784167 0 0 1-.02385799-.15063348zM8.13470025.82268725a.10784167.10784167 0 0 1 .14238143-.05465511.10784167.10784167 0 0 1 .05465511.14238143.10784167.10784167 0 0 1-.14238142.05465511.10784167.10784167 0 0 1-.05465512-.14238143Zm-.42078513-.1494332a.10784167.10784167 0 0 1 .13588845-.06923864.10784167.10784167 0 0 1 .0692386.13588845.10784167.10784167 0 0 1-.13588846.0692386.10784167.10784167 0 0 1-.06923859-.1358884zM7.27981505.56862348a.10784167.10784167 0 0 1 .12790663-.08306353.10784167.10784167 0 0 1 .08306352.12790658.10784167.10784167 0 0 1-.12790662.08306353.10784167.10784167 0 0 1-.08306353-.12790658zm-.44265889-.0586816a.10784167.10784167 0 0 1 .11852345-.09597837.10784167.10784167 0 0 1 .09597838.1185234.10784167.10784167 0 0 1-.11852346.09597838.10784167.10784167 0 0 1-.09597837-.1185234zm-.89155414.02254505A.10784167.10784167 0 0 1 6.0415804.41396351a.10784167.10784167 0 0 1 .11852342.09597837.10784167.10784167 0 0 1-.09597837.11852343.10784167.10784167 0 0 1-.11852343-.09597838Zm-.4391272.08097963a.10784167.10784167 0 0 1 .0830635-.12790662.10784167.10784167 0 0 1 .12790662.0830635.10784167.10784167 0 0 1-.08306353.12790662.10784167.10784167 0 0 1-.12790658-.0830635zm-.428257.12643727a.10784167.10784167 0 0 1 .06923862-.13588841.10784167.10784167 0 0 1 .13588846.0692386.10784167.10784167 0 0 1-.06923861.13588842.10784167.10784167 0 0 1-.13588846-.06923861zm-.41269462.1705097a.10784167.10784167 0 0 1 .05465512-.1423814.10784167.10784167 0 0 1 .14238143.05465512.10784167.10784167 0 0 1-.05465511.14238139.10784167.10784167 0 0 1-.14238144-.05465511zm-.76083602.46530169a.10784167.10784167 0 0 1 .023858-.15063349.10784167.10784167 0 0 1 .1506335.023858.10784167.10784167 0 0 1-.023858.1506335.10784167.10784167 0 0 1-.1506335-.02385801zm-.3398055.289694a.10784167.10784167 0 0 1 .00798178-.15230213.10784167.10784167 0 0 1 .15230214.00798182.10784167.10784167 0 0 1-.00798177.15230214.10784167.10784167 0 0 1-.15230215-.00798182zm-.30766275.32362642a.10784167.10784167 0 0 1-.00798183-.15230213.10784167.10784167 0 0 1 .15230214-.00798184.10784167.10784167 0 0 1 .00798183.15230214.10784167.10784167 0 0 1-.15230214.00798183zm-.2721492.35401304a.10784167.10784167 0 0 1-.02385798-.1506335.10784167.10784167 0 0 1 .15063349-.02385798.10784167.10784167 0 0 1 .02385798.15063349.10784167.10784167 0 0 1-.15063348.02385799zm-.42625249.78338107a.10784167.10784167 0 0 1-.05465511-.14238143.10784167.10784167 0 0 1 .14238143-.05465511.10784167.10784167 0 0 1 .05465511.14238142.10784167.10784167 0 0 1-.14238143.05465512zm-.14943319.42078513a.10784167.10784167 0 0 1-.06923864-.13588845.10784167.10784167 0 0 1 .13588845-.0692386.10784167.10784167 0 0 1 .0692386.13588846.10784167.10784167 0 0 1-.1358884.06923859zm-.10463057.43410007a.10784167.10784167 0 0 1-.08306353-.12790663.10784167.10784167 0 0 1 .12790658-.08306352.10784167.10784167 0 0 1 .08306353.12790662.10784167.10784167 0 0 1-.12790658.08306353zm-.0586816.44265889a.10784167.10784167 0 0 1-.09597837-.11852345.10784167.10784167 0 0 1 .1185234-.09597838.10784167.10784167 0 0 1 .09597838.11852346.10784167.10784167 0 0 1-.1185234.09597837zm.02254505.89155414a.10784167.10784167 0 0 1-.11852342-.09597838.10784167.10784167 0 0 1 .09597837-.11852342.10784167.10784167 0 0 1 .11852343.09597837.10784167.10784167 0 0 1-.09597838.11852343Zm.08097963.4391272a.10784167.10784167 0 0 1-.12790662-.0830635.10784167.10784167 0 0 1 .0830635-.12790662.10784167.10784167 0 0 1 .12790662.08306353.10784167.10784167 0 0 1-.0830635.12790658zm.12643727.428257a.10784167.10784167 0 0 1-.13588841-.06923862.10784167.10784167 0 0 1 .0692386-.13588846.10784167.10784167 0 0 1 .13588842.06923861.10784167.10784167 0 0 1-.06923861.13588846zm.1705097.41269462a.10784167.10784167 0 0 1-.1423814-.05465512.10784167.10784167 0 0 1 .05465512-.14238143.10784167.10784167 0 0 1 .14238139.05465511.10784167.10784167 0 0 1-.05465511.14238144zm.46530169.76083602a.10784167.10784167 0 0 1-.15063349-.023858.10784167.10784167 0 0 1 .023858-.1506335.10784167.10784167 0 0 1 .1506335.023858.10784167.10784167 0 0 1-.02385801.1506335Zm.289694.3398055a.10784167.10784167 0 0 1-.15230213-.00798178.10784167.10784167 0 0 1 .00798182-.15230214.10784167.10784167 0 0 1 .15230214.00798177.10784167.10784167 0 0 1-.00798182.15230215zm.32362642.30766275a.10784167.10784167 0 0 1-.15230213.00798183.10784167.10784167 0 0 1-.00798184-.15230214.10784167.10784167 0 0 1 .15230214-.00798183.10784167.10784167 0 0 1 .00798183.15230214zm.35401304.2721492a.10784167.10784167 0 0 1-.1506335.02385798.10784167.10784167 0 0 1-.02385798-.15063349.10784167.10784167 0 0 1 .15063349-.02385798.10784167.10784167 0 0 1 .02385799.15063348zm.78338107.42625249a.10784167.10784167 0 0 1-.14238143.05465511.10784167.10784167 0 0 1-.05465511-.14238143.10784167.10784167 0 0 1 .14238142-.05465511.10784167.10784167 0 0 1 .05465512.14238143zm.42078513.14943319a.10784167.10784167 0 0 1-.13588845.06923864.10784167.10784167 0 0 1-.0692386-.13588845.10784167.10784167 0 0 1 .13588846-.0692386.10784167.10784167 0 0 1 .06923859.1358884zm.43410007.10463057a.10784167.10784167 0 0 1-.12790663.08306353.10784167.10784167 0 0 1-.08306352-.12790658.10784167.10784167 0 0 1 .12790662-.08306353.10784167.10784167 0 0 1 .08306353.12790658zm.44265889.0586816a.10784167.10784167 0 0 1-.11852345.09597837.10784167.10784167 0 0 1-.09597838-.1185234.10784167.10784167 0 0 1 .11852346-.09597838.10784167.10784167 0 0 1 .09597837.1185234z"/></g><path fill="#66757F" d="M6.21385403 1.57279724v3.42356361H9.6353481v-.49247637H6.80698606V1.57279724Z"/><path fill="#343D41" d="M4.29776839 1.564529v3.44010008h.60228566V1.56452901ZM9.8e-7 1.57279725v3.42356361h.5931322V3.4202297h1.88862566v-.49247637H.59313317v-.85421144h2.91989471v-.50074465Zm10.31085867 0v3.42356361h3.73148483v-.49247637H10.903992V3.4202297h1.9520884v-.4929931H10.903992v-.8536947h2.97420395v-.50074466Zm4.58945184 0v3.42356361h1.68786392c1.32304733 0 2.07108085-.71442978 2.07108085-1.69963785 0-.9851975-.7845318-1.72392576-2.07108085-1.72392576zm.59313235.49247643h1.10388488c.89419785 0 1.45048887.52584022 1.45048887 1.22369783 0 .70606286-.5015436 1.21491298-1.45048887 1.21491298h-1.10388488Zm5.31011978-.49247643-1.93439226 3.42356361h.62974529l.49244621-.870231h2.00761815l.49244621.870231h.6388986l-1.95269857-3.42356361zm.19160847.78806565.73897425 1.313615h-1.48710181zm1.66101415-.78806565v.47645672h1.6054844v2.9471069h.59313204v-2.9471069h1.60609458v-.47645672Zm4.39784337 0v3.42356361h3.732095v-.49247637h-3.13896296V3.4202297h1.95269858v-.4929931h-1.95269858v-.8536947h2.97420426v-.50074466Z"/></svg>